<svg width="128" height="128" xmlns="http://www.w3.org/2000/svg">
 <title/>

 <g>
  <title>background</title>
  <rect fill="none" id="canvas_background" height="402" width="582" y="-1" x="-1"/>
 </g>
 <g>
  <title>Layer 1</title>
  <path id="svg_1" d="m64,0a64,64 0 1 0 64,64a64.07,64.07 0 0 0 -64,-64zm0,122a58,58 0 1 1 58,-58a58.07,58.07 0 0 1 -58,58z"/>
  <path id="svg_2" d="m92.12,35.79a3,3 0 0 0 -4.24,0l-23.88,23.96l-23.87,-24a3,3 0 0 0 -4.25,4.25l23.88,24l-23.88,24a3,3 0 0 0 4.25,4.24l23.87,-23.99l23.88,24a3,3 0 0 0 4.25,-4.25l-23.89,-24l23.89,-24a3,3 0 0 0 -0.01,-4.21z"/>
 </g>
</svg>